<?xml version="1.0" encoding="iso-8859-1"?>
<!-- Generator: Adobe Illustrator 16.0.0, SVG Export Plug-In . SVG Version: 6.00 Build 0)  -->
<!DOCTYPE svg PUBLIC "-//W3C//DTD SVG 1.1//EN" "http://www.w3.org/Graphics/SVG/1.1/DTD/svg11.dtd">
<svg version="1.1" id="Capa_1" xmlns="http://www.w3.org/2000/svg" xmlns:xlink="http://www.w3.org/1999/xlink" x="0px" y="0px"
	 width="580.053px" height="580.053px" viewBox="0 0 580.053 580.053" style="enable-background:new 0 0 580.053 580.053;"
	 xml:space="preserve">
<g>
	<g>
		<path d="M120.019,306.459c3.992,2.291,8.343,3.381,12.637,3.381c8.816,0,17.39-4.586,22.094-12.785l12.331-22.764l38.829-71.69
			l0.56-1.038v115.214l-17.935,212.637l-1.917,22.73c-1.181,13.998,9.214,26.311,23.218,27.492c0.493,0.037,0.985,0.047,1.473,0.061
			c0.229,0.006,0.464,0.029,0.693,0.029c13.086,0,24.208-10.025,25.326-23.309l25.981-228.592h26.718l17.365,226.924
			c0.254,13.889,11.595,24.977,25.432,24.977c0.158,0,0.32,0,0.479-0.004c14.047-0.26,25.23-11.857,24.972-25.906
			c0,0-7.506-287.577-7.626-287.831v-98.369l0.325,0.239l25.235,18.389l15.468,48.769c-12.397,9.065-18.991,24.991-19.488,40.822
			c-0.574,18.37,22.83,14.883,24.762,4.441c1.717-9.285,2.376-14.435,4.136-16.687c4.347,8.645,13.226,13.99,22.706,13.985
			c2.544,0,5.14-0.382,7.698-1.195c5.565-1.764,10.017-5.326,13.105-9.778c1.511,3.935,1.377,6.804,1.582,9.309
			c0.287,3.486,0.483,293.305,0.483,293.305s0.803,10.836,13.373,10.836s12.785-11.801,12.785-11.801V272.125
			c0,0,0.215-13.784-7.229-25.379c0,0-7.425-11.958-22.275-17.212l-21.669-68.314c0,0-2.161-8.133-9.94-13.569l-57.27-40.009
			c-4.069-2.481-8.554-3.586-12.995-3.629c-0.33-0.034-17.566-0.101-17.566-0.101c-0.11-0.282,0.119-0.808,0.707-1.454
			c9.931-10.877,15.984-25.35,15.984-41.243C340.564,27.406,313.158,0,279.349,0c-33.808,0-61.214,27.406-61.214,61.214
			c0,15.893,6.063,30.366,15.994,41.253c0.578,0.636,0.588,1.157,0.172,1.439c0,0-18.269,0.062-18.565,0.091
			c-8.487,0.311-16.634,4.786-21.171,12.699l-83.949,155.027C103.619,283.911,107.832,299.459,120.019,306.459z"/>
	</g>
</g>
<g>
</g>
<g>
</g>
<g>
</g>
<g>
</g>
<g>
</g>
<g>
</g>
<g>
</g>
<g>
</g>
<g>
</g>
<g>
</g>
<g>
</g>
<g>
</g>
<g>
</g>
<g>
</g>
<g>
</g>
</svg>
