<?xml version="1.0" encoding="iso-8859-1"?>
<!-- Generator: Adobe Illustrator 16.0.0, SVG Export Plug-In . SVG Version: 6.00 Build 0)  -->
<!DOCTYPE svg PUBLIC "-//W3C//DTD SVG 1.1//EN" "http://www.w3.org/Graphics/SVG/1.1/DTD/svg11.dtd">
<svg version="1.1" id="Capa_1" xmlns="http://www.w3.org/2000/svg" xmlns:xlink="http://www.w3.org/1999/xlink" x="0px" y="0px"
	 width="79.536px" height="79.536px" viewBox="0 0 79.536 79.536" style="enable-background:new 0 0 79.536 79.536;"
	 xml:space="preserve">
<g>
	<path style="fill:#010002;" d="M79.536,53.297c0-7.084-4.08-13.158-9.973-16.188v-6.55c0-1.455-1.191-2.641-2.642-2.641h-4.919
		v-4.163c0.72-0.208,1.378-0.567,1.833-1.145c0.564-0.717,0.803-1.587,0.663-2.457l-0.481-3.021c-0.28-1.74-2.01-2.985-3.94-2.651
		c-0.606,0.096-1.129,0.378-1.605,0.732l-3.221-2.012c0-0.015,0.01-0.031,0.016-0.046c0.232-0.881,0.145-1.797-0.259-2.582
		c-0.42-0.808-1.119-1.385-1.974-1.608l-2.962-0.795c-1.678-0.445-3.541,0.694-4.028,2.514c-0.041,0.163-0.01,0.339-0.031,0.507
		l-3.075,0.489c-0.803-1.654-2.778-2.467-4.365-1.74l-2.783,1.282c-1.543,0.712-2.186,2.589-1.543,4.27l-2.317,2.402l-3.78-2.646
		c-1.193-0.831-2.848-0.536-3.679,0.658l-3.754,5.367c-6.571-0.891-13.391,1.747-17.445,7.555
		c-5.494,7.86-3.871,18.496,3.407,24.492l2.063-2.951c-5.657-4.852-6.876-13.24-2.519-19.478c4.64-6.636,13.782-8.257,20.425-3.612
		c6.633,4.634,8.256,13.785,3.617,20.427c-4.427,6.328-12.938,8.031-19.48,4.133l-2.069,2.957c8.176,5.022,18.929,2.94,24.498-5.033
		c4.06-5.805,4.199-13.117,1.103-18.973l3.76-5.377c0.831-1.193,0.535-2.848-0.652-3.679l-3.957-2.768l1.872-1.942
		c0.593,0.484,1.315,0.79,2.084,0.79c0.445,0,0.88-0.096,1.281-0.28l2.786-1.284c1.043-0.487,1.634-1.512,1.747-2.641l3.05-0.481
		c0.042,0.091,0.042,0.187,0.094,0.274c0.43,0.738,1.103,1.264,1.89,1.471l2.962,0.795c0.254,0.067,0.523,0.111,0.787,0.111
		c0.829,0,1.59-0.354,2.195-0.917l3.092,1.918c-0.155,0.466-0.223,0.95-0.15,1.437l0.487,3.021c0.207,1.29,1.211,2.255,2.506,2.556
		v4.111h-4.547c-1.449,0-2.646,1.186-2.646,2.641v6.55c-5.893,3.023-9.968,9.104-9.968,16.187c0,9.595,7.42,17.378,16.823,18.124
		v-3.604c-7.404-0.72-13.209-6.907-13.209-14.509c0-8.099,6.561-14.664,14.664-14.664c8.099,0,14.665,6.561,14.665,14.664
		c0,7.73-6.007,14.002-13.593,14.561v3.604C71.914,70.902,79.536,63.016,79.536,53.297z M30.769,24.175
		c-0.505,0.73-1.507,0.911-2.239,0.396c-0.72-0.497-0.901-1.504-0.386-2.237c0.349-0.505,0.932-0.624,1.504-0.551l1.476-2.115
		l1.124,0.79l-1.473,2.11C31.038,23.082,31.123,23.67,30.769,24.175z M40.752,14.663l-2.778,1.282
		c-0.445,0.207-0.971,0.101-1.405-0.194l0.616-0.637c0.354-0.368,0.35-0.961-0.023-1.31c-0.365-0.35-0.953-0.344-1.308,0.026
		l-0.054,0.06c0.085-0.469,0.308-0.875,0.728-1.072l2.778-1.284c0.168-0.077,0.354-0.121,0.552-0.121
		c0.435,0,0.811,0.243,1.129,0.58l-0.404,0.062c-0.533,0.086-0.9,0.583-0.815,1.119C39.841,13.661,40.252,14,40.731,14
		c0.047,0,0.101-0.005,0.152-0.016l0.489-0.08C41.239,14.223,41.065,14.518,40.752,14.663z M53.247,11.952
		c-0.456-0.293-1.062-0.143-1.347,0.318c-0.29,0.456-0.145,1.056,0.311,1.341l0.394,0.244c-0.29,0.14-0.61,0.212-0.911,0.129
		l-2.967-0.792c-0.191-0.057-0.311-0.244-0.466-0.371l0.714-0.111c0.539-0.085,0.896-0.583,0.813-1.119
		c-0.078-0.541-0.555-0.939-1.113-0.818l-0.793,0.125c0.28-0.622,0.798-1.083,1.409-1.083c0.108,0,0.228,0.01,0.331,0.042
		l2.962,0.79c0.362,0.106,0.679,0.363,0.87,0.733c0.108,0.223,0.057,0.492,0.067,0.748L53.247,11.952z M59.367,20.978l-0.486-3.021
		c-0.005-0.055,0.046-0.109,0.041-0.155l0.243,0.143c0.161,0.106,0.337,0.155,0.519,0.155c0.326,0,0.647-0.171,0.833-0.469
		c0.285-0.456,0.141-1.054-0.315-1.341c0.052-0.015,0.088-0.073,0.145-0.083c0.104-0.016,0.213-0.029,0.312-0.029
		c0.828,0,1.512,0.521,1.631,1.225l0.486,3.024c0.057,0.375-0.047,0.769-0.311,1.088c-0.108,0.137-0.315,0.163-0.461,0.264v-0.673
		c0-0.516-0.409-0.927-0.927-0.927c-0.513,0-0.927,0.411-0.927,0.927v0.839C59.751,21.731,59.44,21.412,59.367,20.978z
		 M61.268,35.339c-0.886,0-1.604-0.725-1.604-1.605c0-0.618,0.403-1.054,0.916-1.325v-2.576h1.372v2.576
		c0.513,0.271,0.917,0.707,0.917,1.325C62.868,34.614,62.153,35.339,61.268,35.339z"/>
</g>
<g>
</g>
<g>
</g>
<g>
</g>
<g>
</g>
<g>
</g>
<g>
</g>
<g>
</g>
<g>
</g>
<g>
</g>
<g>
</g>
<g>
</g>
<g>
</g>
<g>
</g>
<g>
</g>
<g>
</g>
</svg>
