<?xml version="1.0" encoding="iso-8859-1"?>
<!-- Generator: Adobe Illustrator 18.1.1, SVG Export Plug-In . SVG Version: 6.00 Build 0)  -->
<svg version="1.1" id="Capa_1" xmlns="http://www.w3.org/2000/svg" xmlns:xlink="http://www.w3.org/1999/xlink" x="0px" y="0px"
	 viewBox="0 0 611.999 611.999" style="enable-background:new 0 0 611.999 611.999;" xml:space="preserve">
<g>
	<path d="M605.94,128.658L483.327,6.047c-8.062-8.062-21.132-8.062-29.195,0c-27.83,27.83-28.59,74.215-5.01,113.09
		c-0.215,0.203-0.445,0.381-0.655,0.592L327.606,240.59c-9.673,0.613-19.172,4.574-26.565,11.966l-72.707,72.707l-65.687-65.687
		c-8.144-8.146-21.351-8.148-29.5-0.002L21.785,370.932c-2.102,2.102-3.732,4.631-4.778,7.413
		c-1.98,5.267-47.684,129.741,19.601,197.031c24.303,24.301,58.573,36.623,101.861,36.623c49.293,0,93.319-16.33,95.168-17.024
		c2.784-1.046,5.311-2.674,7.415-4.778l111.356-111.36c8.146-8.146,8.146-21.353-0.002-29.498l-65.687-65.689l72.707-72.707
		c7.392-7.392,11.353-16.892,11.966-26.563l120.861-120.861c0.199-0.199,0.367-0.416,0.559-0.619
		c17.936,10.965,37.787,16.987,57.232,16.987c0.002,0,0.002,0,0.004,0c21.828,0,41.679-7.827,55.888-22.037
		C614.002,149.79,614.002,136.718,605.94,128.658z M550.052,138.603h-0.002c-17.728-0.002-37.35-9.039-52.489-24.176
		C479.737,96.601,471.23,73.35,473.9,55.005l83.101,83.101C554.522,138.47,552.165,138.603,550.052,138.603z"/>
</g>
<g>
</g>
<g>
</g>
<g>
</g>
<g>
</g>
<g>
</g>
<g>
</g>
<g>
</g>
<g>
</g>
<g>
</g>
<g>
</g>
<g>
</g>
<g>
</g>
<g>
</g>
<g>
</g>
<g>
</g>
</svg>
