<?xml version="1.0" encoding="iso-8859-1"?>
<!-- Generator: Adobe Illustrator 16.0.0, SVG Export Plug-In . SVG Version: 6.00 Build 0)  -->
<!DOCTYPE svg PUBLIC "-//W3C//DTD SVG 1.1//EN" "http://www.w3.org/Graphics/SVG/1.1/DTD/svg11.dtd">
<svg version="1.1" id="Capa_1" xmlns="http://www.w3.org/2000/svg" xmlns:xlink="http://www.w3.org/1999/xlink" x="0px" y="0px"
	 width="45.4px" height="45.4px" viewBox="0 0 45.4 45.4" style="enable-background:new 0 0 45.4 45.4;" xml:space="preserve">
<g>
	<path d="M23.383,0.104c-0.445-0.139-0.922-0.139-1.367,0L2.391,6.232C1.417,6.537,0.763,7.446,0.784,8.467
		c0.51,25.546,12.355,32.583,20.921,36.707c0.629,0.303,1.361,0.303,1.99,0c8.566-4.123,20.412-11.16,20.92-36.706
		c0.021-1.019-0.635-1.931-1.607-2.234L23.383,0.104z M31.23,21.648c0,0.932-0.755,1.687-1.687,1.687h-4.211v4.13
		c0,0.93-0.754,1.686-1.687,1.686h-1.958c-0.931,0-1.687-0.754-1.687-1.686v-4.13h-4.129c-0.932,0-1.687-0.755-1.687-1.687v-2.039
		c0-0.931,0.755-1.687,1.687-1.687h4.129v-4.13c0-0.931,0.755-1.687,1.687-1.687h1.958c0.933,0,1.687,0.755,1.687,1.687v4.13h4.211
		c0.931,0,1.687,0.755,1.687,1.687V21.648z"/>
</g>
<g>
</g>
<g>
</g>
<g>
</g>
<g>
</g>
<g>
</g>
<g>
</g>
<g>
</g>
<g>
</g>
<g>
</g>
<g>
</g>
<g>
</g>
<g>
</g>
<g>
</g>
<g>
</g>
<g>
</g>
</svg>
